<svg id="Layer_1" enable-background="new 0 0 512.038 512.038" height="512" viewBox="0 0 512.038 512.038" width="512" xmlns="http://www.w3.org/2000/svg" xmlns:xlink="http://www.w3.org/1999/xlink"><linearGradient id="SVGID_1_" gradientUnits="userSpaceOnUse" x1=".02" x2="512.018" y1="256.019" y2="256.019"><stop offset="0" stop-color="#ffa726"/><stop offset=".0208" stop-color="#ffa726"/><stop offset=".2931" stop-color="#29b6f6"/><stop offset=".5538" stop-color="#ffa726"/><stop offset=".7956" stop-color="#29b6f6"/><stop offset="1" stop-color="#ffa726"/></linearGradient><path d="m367.33 512.038c-13.508 0-28.596-4.484-45.001-9.36-20.05-5.958-42.774-12.712-66.31-12.712s-46.26 6.754-66.31 12.712c-27.926 8.299-52.044 15.466-71.029 1.304-16.727-12.479-18.661-34.766-18.661-50.444 0-28.556 18.67-53.873 36.725-78.357 15.521-21.047 31.57-42.812 34.43-64.528 1.656-12.574 5.625-31.219 15.127-48.635 15.355-28.143 39.463-43.018 69.718-43.018s54.363 14.875 69.717 43.018c9.503 17.417 13.472 36.061 15.127 48.635 2.216 16.824 12.169 33.083 21.614 46.768 6.273 9.091 3.99 21.547-5.101 27.821s-21.546 3.989-27.821-5.101c-11.442-16.581-25.005-38.87-28.35-64.265-1.713-13.007-5.472-25.331-10.583-34.699-10.844-19.878-24.942-22.177-34.603-22.177s-23.759 2.299-34.604 22.176c-5.112 9.369-8.87 21.692-10.584 34.699-4.205 31.937-24.228 59.09-41.895 83.046-14.871 20.167-28.918 39.215-28.918 54.617 0 12.666 2.003 17.189 2.643 18.311 5.4 1.482 23.54-3.913 35.652-7.513 21.542-6.402 48.352-14.37 77.705-14.37s56.163 7.968 77.705 14.37c12.111 3.599 30.252 8.988 35.652 7.513.64-1.122 2.643-5.645 2.643-18.311 0-11.046 8.954-20 20-20s20 8.954 20 20c0 15.678-1.935 37.965-18.661 50.444-7.831 5.842-16.541 8.056-26.027 8.056zm43.689-417.038c0-53.271-30.748-95-70-95s-70 41.729-70 95 30.748 95 70 95 70-41.729 70-95zm-40 0c0 31.479-15.838 55-30 55s-30-23.521-30-55 15.838-55 30-55 30 23.521 30 55zm-128 0c0-53.271-30.748-95-70-95s-70 41.729-70 95 30.748 95 70 95 70-41.729 70-95zm-40 0c0 31.479-15.838 55-30 55s-30-23.521-30-55 15.838-55 30-55 30 23.521 30 55zm302.945 180.97c6.818-20.113 7.917-41.103 3.095-59.104-5.516-20.589-18.565-35.742-35.803-41.573-33.61-11.372-71.904 15.026-87.182 60.094-6.818 20.113-7.917 41.104-3.095 59.104 5.516 20.589 18.565 35.742 35.803 41.573 5.268 1.782 10.65 2.636 16.042 2.636 29.006 0 58.257-24.727 71.14-62.73zm-82.007-27.741c8.115-23.941 26.27-38.501 36.481-35.045 6.177 2.09 9.04 10.51 9.983 14.034 2.758 10.297 1.905 23.386-2.341 35.911-8.116 23.942-26.277 38.5-36.481 35.045-6.177-2.09-9.04-10.51-9.983-14.034-2.758-10.297-1.905-23.387 2.341-35.911zm-330.701 87.835c17.237-5.831 30.287-20.984 35.803-41.573 4.822-18 3.723-38.991-3.095-59.104-15.278-45.067-53.57-71.462-87.182-60.094-17.237 5.831-30.287 20.984-35.803 41.573-4.822 18-3.723 38.99 3.095 59.104 12.884 38.006 42.132 62.73 71.14 62.73 5.389 0 10.776-.855 16.042-2.636zm-5.175-87.835c4.246 12.525 5.099 25.614 2.341 35.911-.944 3.523-3.806 11.944-9.983 14.034-10.207 3.449-28.366-11.104-36.481-35.045-4.246-12.525-5.099-25.614-2.341-35.911.944-3.523 3.806-11.944 9.983-14.034 1.002-.339 2.08-.504 3.219-.504 10.455-.001 25.943 13.959 33.262 35.549z" fill="url(#SVGID_1_)"/></svg>